<svg id="photographer" xmlns="http://www.w3.org/2000/svg"
     width="165.25" height="170.428" viewBox="0 0 165.25 170.428">
    <path id="Tracé_162" data-name="Tracé 162"
          d="M58.808,222.175l-24.193,18.1a2.444,2.444,0,0,1-3.42-.493L8.264,209.127a2.443,2.443,0,0,1,.493-3.42l24.193-18.1a2.444,2.444,0,0,1,3.42.493L59.3,218.755A2.443,2.443,0,0,1,58.808,222.175Z"
          transform="translate(-7.777 -124.835)" fill="#e5e5e5"/>
    <path id="Tracé_163" data-name="Tracé 163"
          d="M65.291,236.673l-11.3,8.455a2.444,2.444,0,0,1-3.42-.493l-8.454-11.3a2.444,2.444,0,0,1,.493-3.42l11.3-8.455a2.444,2.444,0,0,1,3.42.493l8.455,11.3A2.444,2.444,0,0,1,65.291,236.673Z"
          transform="translate(-30.36 -147.417)" fill="#8783d2"/>
    <path id="Tracé_164" data-name="Tracé 164"
          d="M397.293,367.943l-28.653-9.586a2.443,2.443,0,0,1-1.542-3.092l12.145-36.3a2.444,2.444,0,0,1,3.092-1.542l28.653,9.586a2.443,2.443,0,0,1,1.542,3.092l-12.145,36.3A2.444,2.444,0,0,1,397.293,367.943Z"
          transform="translate(-247.407 -211.677)" fill="#e5e5e5"/>
    <path id="Tracé_165" data-name="Tracé 165"
          d="M420.32,370.523l-13.385-4.478a2.443,2.443,0,0,1-1.542-3.092l4.478-13.385a2.443,2.443,0,0,1,3.092-1.542l13.385,4.478a2.443,2.443,0,0,1,1.542,3.092l-4.478,13.385A2.444,2.444,0,0,1,420.32,370.523Z"
          transform="translate(-272.954 -232.095)" fill="#ffa8cb"/>
    <path id="Tracé_166" data-name="Tracé 166"
          d="M346.165,379.693a5.032,5.032,0,0,1-4.941-2.952c-1.157-2.564-3.7-4.236-4.915-5.039-.182-.12-.34-.224-.467-.312a5.031,5.031,0,1,1,5.692-8.3c.085.058.189.126.311.206,1.695,1.116,6.2,4.081,8.554,9.307a5.034,5.034,0,0,1-4.232,7.088Z"
          transform="translate(-225.181 -241.641)" fill="#498a68"/>
    <path id="Tracé_167" data-name="Tracé 167"
          d="M95.137,387.407c-23.48,0-50.5,0-70.282-12.629a3.742,3.742,0,0,1,2.553-6.849c15.665,2.091,28.823-1.9,36.326-8.356Z"
          transform="translate(-18.014 -239.883)" fill="#5cb38e"/>
    <path id="Tracé_168" data-name="Tracé 168"
          d="M118.525,364.9c.262,7.5,1.413,14.983,6.035,21.207,11.446,1.3,23.224,1.3,34.224,1.3l-31.4-27.834A33.034,33.034,0,0,1,118.525,364.9Z"
          transform="translate(-81.661 -239.884)" opacity="0.1"/>
    <g id="Groupe_9" data-name="Groupe 9" transform="translate(57.915 132.292)">
        <path id="Tracé_169" data-name="Tracé 169"
              d="M190.462,435.567q-.3,0-.6-.023a7.741,7.741,0,0,1-7.124-8.312c.3-3.868-.021-16.77-.576-19.627a7.741,7.741,0,0,1,14.517-5.353c2.087,5.122,1.59,24.928,1.495,26.167A7.741,7.741,0,0,1,190.462,435.567Zm-8.126-27.482,0,.009Z"
              transform="translate(-181.766 -397.431)" fill="#498a68"/>
        <path id="Tracé_170" data-name="Tracé 170"
              d="M274.8,435.567q-.3,0-.6-.023a7.741,7.741,0,0,1-7.124-8.312c.3-3.868-.021-16.768-.577-19.626a7.741,7.741,0,0,1,14.517-5.354c2.088,5.123,1.59,24.929,1.5,26.168A7.741,7.741,0,0,1,274.8,435.567Zm-8.126-27.481,0,.009Z"
              transform="translate(-238.029 -397.431)" fill="#498a68"/>
    </g>
    <path id="Tracé_171" data-name="Tracé 171"
          d="M282.628,421.245c-.006-6.58-.29-15.743-1.615-18.994A7.741,7.741,0,0,0,266.5,407.6c.445,2.292.738,11.038.683,16.408A61.242,61.242,0,0,0,282.628,421.245Z"
          transform="translate(-180.114 -265.138)" opacity="0.1"/>
    <path id="Tracé_172" data-name="Tracé 172"
          d="M186.588,398a7.741,7.741,0,0,0-4.428,9.6,125.741,125.741,0,0,1,.687,14.194,67.363,67.363,0,0,0,15.43,2.314c.072-6.433-.068-18.1-1.6-21.861A7.74,7.74,0,0,0,186.588,398Z"
          transform="translate(-123.851 -265.138)" opacity="0.1"/>
    <path id="Tracé_173" data-name="Tracé 173"
          d="M212.244,295.566c0,18.071-2.455,31.147-35.34,31.147s-35.341-13.076-35.341-31.147,15.822-32.721,35.341-32.721S212.244,277.495,212.244,295.566Z"
          transform="translate(-97.03 -175.353)" fill="#5cb38e"/>
    <path id="Tracé_174" data-name="Tracé 174"
          d="M273.675,358.129c0-.144,0-.287-.006-.431-7.361-1.889-21.962-2.438-32.122,8.359a27.73,27.73,0,0,0-7.681,23.131q2.135.087,4.468.087C271.22,389.276,273.675,376.2,273.675,358.129Z"
          transform="translate(-158.46 -237.916)" fill="#9bdfc1"/>
    <path id="Tracé_175" data-name="Tracé 175"
          d="M170.194,264.622c-16.309,2.9-28.632,16.182-28.632,32.129,0,16.733,2.109,29.181,28.528,30.934C155.422,312.8,158.259,282.054,170.194,264.622Z"
          transform="translate(-97.029 -176.538)" opacity="0.05"/>
    <path id="Tracé_176" data-name="Tracé 176"
          d="M343.143,337.725l-.1,0a2.5,2.5,0,0,1-2.394-2.6c.056-1.382.082-2.889.082-4.741a27.964,27.964,0,0,0-2.6-11.8,2.5,2.5,0,0,1,4.533-2.093,32.929,32.929,0,0,1,3.06,13.9c0,1.921-.027,3.49-.086,4.942A2.5,2.5,0,0,1,343.143,337.725Z"
          transform="translate(-228.011 -210.174)" fill="#495059"/>
    <path id="Tracé_177" data-name="Tracé 177"
          d="M194.357,91.983h0A32.593,32.593,0,0,0,167.17,77.367H153.721A34.621,34.621,0,0,0,119.1,111.988v15.918a31.072,31.072,0,0,0,31.072,31.072h71.293A23.277,23.277,0,0,0,244.742,135.7V124.868a23.277,23.277,0,0,0-23.277-23.277H212.23A21.43,21.43,0,0,1,194.357,91.983Z"
          transform="translate(-82.044 -51.614)" fill="#5cb38e"/>
    <g id="Groupe_10" data-name="Groupe 10" transform="translate(53.48 81.473)" opacity="0.1">
        <circle id="Ellipse_1" data-name="Ellipse 1" cx="2.383" cy="2.383" r="2.383"/>
        <circle id="Ellipse_2" data-name="Ellipse 2" cx="2.383" cy="2.383" r="2.383"
                transform="translate(16.94 3.638)"/>
        <circle id="Ellipse_3" data-name="Ellipse 3" cx="2.383" cy="2.383" r="2.383"
                transform="translate(7.247 11.764)"/>
    </g>
    <g id="Groupe_11" data-name="Groupe 11" transform="translate(53.479 48.19)">
        <ellipse id="Ellipse_4" data-name="Ellipse 4" cx="6.005" cy="3.081" rx="6.005" ry="3.081"
                 fill="#ffa8cb"/>
        <ellipse id="Ellipse_5" data-name="Ellipse 5" cx="6.005" cy="3.081" rx="6.005" ry="3.081"
                 transform="translate(40.32)" fill="#ffa8cb"/>
    </g>
    <g id="Groupe_12" data-name="Groupe 12" transform="translate(64.607 39.675)">
        <path id="Tracé_178" data-name="Tracé 178"
              d="M204.366,127.178a2.5,2.5,0,0,1-2.5-2.5V121.69a2.5,2.5,0,1,1,4.993,0v2.992A2.5,2.5,0,0,1,204.366,127.178Z"
              transform="translate(-201.869 -119.193)" fill="#495059"/>
        <path id="Tracé_179" data-name="Tracé 179"
              d="M279.713,127.178a2.5,2.5,0,0,1-2.5-2.5V121.69a2.5,2.5,0,0,1,4.993,0v2.992A2.5,2.5,0,0,1,279.713,127.178Z"
              transform="translate(-252.135 -119.193)" fill="#495059"/>
        <path id="Tracé_180" data-name="Tracé 180"
              d="M398.257,264.1a8.8,8.8,0,0,1-6.635-3.021,2.5,2.5,0,0,1,3.764-3.281,3.8,3.8,0,0,0,5.743,0,2.5,2.5,0,1,1,3.764,3.281A8.8,8.8,0,0,1,398.257,264.1Z"
              transform="translate(-328.049 -211.088)" fill="#495059"/>
        <circle id="Ellipse_6" data-name="Ellipse 6" cx="2.383" cy="2.383" r="2.383"
                transform="translate(60.233 20.078)" fill="#495059"/>
        <circle id="Ellipse_7" data-name="Ellipse 7" cx="2.383" cy="2.383" r="2.383"
                transform="translate(75.418 20.078)" fill="#495059"/>
    </g>
    <path id="Tracé_181" data-name="Tracé 181"
          d="M146.029,79.947a34.633,34.633,0,0,0-26.93,33.762v15.918A31.072,31.072,0,0,0,150.171,160.7h18.855C141.567,144.722,136.912,100.8,146.029,79.947Z"
          transform="translate(-82.044 -53.335)" opacity="0.05"/>
    <path id="Tracé_182" data-name="Tracé 182"
          d="M301.394,384.628h-21.51a3.133,3.133,0,0,1-3.133-3.133V369.767a3.133,3.133,0,0,1,3.133-3.133h21.51a3.133,3.133,0,0,1,3.133,3.133v11.728A3.133,3.133,0,0,1,301.394,384.628Z"
          transform="translate(-187.219 -244.594)" fill="#495059"/>
    <path id="Tracé_183" data-name="Tracé 183"
          d="M237.561,391.239a26.854,26.854,0,0,1-12.007-3.284,5.031,5.031,0,1,1,4.6-8.952,16.525,16.525,0,0,0,7.731,2.166,5.032,5.032,0,0,1,.435,10.054C238.066,391.234,237.814,391.239,237.561,391.239Z"
          transform="translate(-151.238 -252.474)" fill="#498a68"/>
    <path id="Tracé_184" data-name="Tracé 184"
          d="M310.5,342.381h-6.1a2.451,2.451,0,0,0-2.451,2.451v5.622h11v-5.622A2.451,2.451,0,0,0,310.5,342.381Z"
          transform="translate(-204.027 -228.414)" fill="#fff"/>
    <circle id="Ellipse_8" data-name="Ellipse 8" cx="5.983" cy="5.983" r="5.983"
            transform="translate(98.987 125.053)" fill="#959ba0"/>
    <g id="Groupe_13" data-name="Groupe 13" transform="translate(47.934 99.336)">
        <circle id="Ellipse_9" data-name="Ellipse 9" cx="2.116" cy="2.116" r="2.116"
                transform="translate(54.921 29.585)" fill="#495059"/>
        <path id="Tracé_185" data-name="Tracé 185"
              d="M198.114,326.641a2.5,2.5,0,0,1-.8-.131c-16.072-5.407-36.974-15.2-44.889-23.91a2.5,2.5,0,0,1,3.7-3.357c5.291,5.825,21.686,15.436,42.785,22.534a2.5,2.5,0,0,1-.8,4.863Z"
              transform="translate(-151.78 -298.425)" fill="#495059"/>
    </g>
    <g id="Groupe_14" data-name="Groupe 14" transform="translate(35.738)">
        <path id="Tracé_186" data-name="Tracé 186"
              d="M190.058,75.415l-72.347,6.329a2.359,2.359,0,0,1-1.973-3.913l8.594-9.715,56.839-4.973,10.15,8.076A2.359,2.359,0,0,1,190.058,75.415Z"
              transform="translate(-115.14 -42.125)" fill="#e5e5e5"/>
        <path id="Tracé_187" data-name="Tracé 187"
              d="M186.745.033,147.052,3.506a8.606,8.606,0,0,0-7.823,9.323l1.151,13.162,56.839-4.973L196.068,7.856A8.606,8.606,0,0,0,186.745.033Z"
              transform="translate(-131.189 0)" fill="#e5e5e5"/>
    </g>
    <rect id="Rectangle_1" data-name="Rectangle 1" width="57.057" height="10.909"
          transform="translate(101.77 21.013) rotate(174.998)" fill="#cd5b5b"/>
</svg>
